<svg xmlns="http://www.w3.org/2000/svg" viewBox="0 0 257.2 51.25"><defs><style>.cls-1{fill:#fff;}</style></defs><title>logo-white</title><g id="Layer_2" data-name="Layer 2"><g id="Group_185" data-name="Group 185"><path id="Path_60" data-name="Path 60" class="cls-1" d="M28.39,0H0V30.37C5,20.77,16.42,6.73,28.39,0"></path><path id="Path_61" data-name="Path 61" class="cls-1" d="M30.47,8.7s-14,2.48-30.47,25v1.88H35.61V0Z"></path><path id="Path_62" data-name="Path 62" class="cls-1" d="M51.94,35.12h.69v.49H41.55v-.49h.69a3.34,3.34,0,0,0,2.28-.89,3.66,3.66,0,0,0,1-2.28V4.15a3,3,0,0,0-1-2.17,3.17,3.17,0,0,0-2.28-.89h-.69V.59h11v.5h-.69A3.27,3.27,0,0,0,49.56,2a3.21,3.21,0,0,0-1,2.18V32a3,3,0,0,0,1,2.28,3.54,3.54,0,0,0,2.38.89M72,35.61H69.84c-3.36,0-5.93-1-7.52-2.86L50.25,18.2,62.12,3.36a1.16,1.16,0,0,0,.4-.89.8.8,0,0,0-.2-.69A1.37,1.37,0,0,0,60.94,1h-.5V.59H71V1h-.2a7,7,0,0,0-5.44,2.37L53.62,17,67.27,33A7.43,7.43,0,0,0,72,35.12Z"></path><path id="Path_63" data-name="Path 63" class="cls-1" d="M72.31,35.22a2.51,2.51,0,0,0,2-.89,2.62,2.62,0,0,0,.89-2V6.83a3.1,3.1,0,0,0-3-2.68h-.59V3.66H85.07a17.55,17.55,0,0,0,3.07-.3A5.54,5.54,0,0,0,90.42,3V8.71H90v-.8A2.34,2.34,0,0,0,89.23,6a2.49,2.49,0,0,0-1.78-.79h-9.3V19.29h7.71a2.54,2.54,0,0,0,1.59-.69A2.25,2.25,0,0,0,88,17v-.6h.5v7.22H88V23a2.42,2.42,0,0,0-.59-1.58A2.11,2.11,0,0,0,86,20.68H78.15V34.23h6.53a7.76,7.76,0,0,0,5.14-1.49,11,11,0,0,0,3-4.45h.49l-2.67,7.32H71.72v-.49h.6Z"></path><path id="Path_64" data-name="Path 64" class="cls-1" d="M123.26,4.25h-.6a5,5,0,0,0-2.57.79,5.93,5.93,0,0,0-2,1.89l-9,14.54V32.35a2.45,2.45,0,0,0,.89,2,2.84,2.84,0,0,0,2.07.89h.6v.4h-9.9v-.5h.6a2.76,2.76,0,0,0,2-.79,2.66,2.66,0,0,0,.89-2v-11L97.45,6.93a6,6,0,0,0-2-1.88,4.92,4.92,0,0,0-2.57-.8h-.6V3.76h11.17v.49h-.59a1.79,1.79,0,0,0-1.58.89,1.85,1.85,0,0,0-.3,1,2.68,2.68,0,0,0,.2.89L108,19.78,115.34,7a1.45,1.45,0,0,0,.2-.89,2.2,2.2,0,0,0-.3-1,1.79,1.79,0,0,0-1.58-.89h-.59V3.76h10.09v.49Z"></path><path id="Path_65" data-name="Path 65" class="cls-1" d="M146.8,10.29a8.87,8.87,0,0,1-.89,4.05,9.17,9.17,0,0,1-5.83,4.95,9.11,9.11,0,0,1-2.48.5,11.12,11.12,0,0,1-5.34-1.2V18.1a9.75,9.75,0,0,0,6.73-.79,7.41,7.41,0,0,0,3.75-4.65,6.65,6.65,0,0,0,.3-1.88V9.69a8.66,8.66,0,0,0-1.88-5.54,6,6,0,0,0-4.94-2.07h-5.64V32a3.38,3.38,0,0,0,1,2.28,3.1,3.1,0,0,0,2.17.89h.7v.49h-11v-.49h.69a3.36,3.36,0,0,0,2.28-.89,3.27,3.27,0,0,0,1-2.28V4a3.61,3.61,0,0,0-1.09-2.07,2.8,2.8,0,0,0-2.18-.79h-.59l-.1-.5h13.06A10.64,10.64,0,0,1,144,3.17c1.88,1.68,2.77,4.05,2.77,7.12"></path><path id="Path_66" data-name="Path 66" class="cls-1" d="M153.53,7.72c3-3.07,6.93-4.55,11.77-4.55a16,16,0,0,1,11.87,4.55c3.07,3.06,4.56,7,4.56,12s-1.49,8.9-4.56,12a16,16,0,0,1-11.87,4.55c-4.84,0-8.8-1.49-11.77-4.55s-4.55-7-4.55-12,1.58-8.9,4.55-12m2.57,23.05a12.49,12.49,0,0,0,17.63,1,12.68,12.68,0,0,0,1-1q3.57-4.15,3.56-11a18.28,18.28,0,0,0-1.58-7.92,12.68,12.68,0,0,0-4.55-5.34,11.87,11.87,0,0,0-6.73-1.88,11.63,11.63,0,0,0-9.3,4.15q-3.56,4.15-3.56,11a16.66,16.66,0,0,0,3.56,11"></path><path id="Path_67" data-name="Path 67" class="cls-1" d="M183.5,35.22a2.5,2.5,0,0,0,2-.89,2.62,2.62,0,0,0,.89-2V7a2.45,2.45,0,0,0-.89-2,2.5,2.5,0,0,0-2-.79h-.59v-.5h10v.49h-.59a2.81,2.81,0,0,0-2,.79,2.51,2.51,0,0,0-.89,2V32.25a2.51,2.51,0,0,0,.89,2,2.86,2.86,0,0,0,2.08.89H193v.49H183v-.49h.5Z"></path><path id="Path_68" data-name="Path 68" class="cls-1" d="M228.12,4.25a3,3,0,0,0-2,.79,3.37,3.37,0,0,0-.89,2V30.47a42.47,42.47,0,0,0,.3,5l.1.79h-.4L200.52,9.79V32.45a2.55,2.55,0,0,0,1.38,2.37,3.1,3.1,0,0,0,1.39.4h.89v.4h-9.4v-.49h.89a3,3,0,0,0,2-.79,2.43,2.43,0,0,0,.79-2V8.8a37.12,37.12,0,0,0-.3-4.94l-.1-.69h.49l24.83,26.51V7a2.42,2.42,0,0,0-.89-2,2.85,2.85,0,0,0-2-.79h-.89v-.5H229v.5Z"></path><path id="Path_69" data-name="Path 69" class="cls-1" d="M256.91,7.82a2.73,2.73,0,0,0-.79-1.88,2.5,2.5,0,0,0-1.79-.8h-8.6v27.3a2.48,2.48,0,0,0,.89,2,2.53,2.53,0,0,0,2,.79h.59v.4h-10v-.49h.59a3.24,3.24,0,0,0,2.08-.79,2.62,2.62,0,0,0,.89-2V5.14h-8.61a2.72,2.72,0,0,0-2.67,2.68v.79H231V3a12.84,12.84,0,0,0,2.37.59,17.55,17.55,0,0,0,3.07.3h15.33a18.71,18.71,0,0,0,3.66-.3,9,9,0,0,0,1.78-.49V8.8h-.49v-1Z"></path><path id="Path_70" data-name="Path 70" class="cls-1" d="M155,40.56a6.54,6.54,0,0,1,1.59.2,3.45,3.45,0,0,1,1.18.59,3.48,3.48,0,0,1,1.29,2.18l-2,.4a2.8,2.8,0,0,0-.79-1.29,2.08,2.08,0,0,0-1.28-.49,2,2,0,0,0-1.69.89,4.14,4.14,0,0,0-.69,2.67,5.26,5.26,0,0,0,.6,2.67,2,2,0,0,0,1.68,1,2.32,2.32,0,0,0,1.58-.5,1.63,1.63,0,0,0,.59-1.38h2A3.26,3.26,0,0,1,158,50.06a4.45,4.45,0,0,1-3,.89,4.15,4.15,0,0,1-3.16-1.39,6,6,0,0,1-1.19-3.86,5.66,5.66,0,0,1,1.19-3.86A4.55,4.55,0,0,1,155,40.56"></path><path id="Path_71" data-name="Path 71" class="cls-1" d="M168.37,43.92a2.77,2.77,0,0,1-.59,1.78A3.23,3.23,0,0,1,166,46.79l2.68,4.06h-2.38l-2.17-4h-1.39v4H161V40.76h3.76a4,4,0,0,1,2.77.89,3,3,0,0,1,.89,2.27m-4,1.78a2.07,2.07,0,0,0,1.49-.49,1.68,1.68,0,0,0,0-2.37h0a2,2,0,0,0-1.39-.49h-1.88V45.7Z"></path><path id="Path_72" data-name="Path 72" class="cls-1" d="M170.45,40.76h6.43v1.58h-4.65V45h4.35v1.58h-4.35v2.68h4.65v1.58h-6.43Z"></path><path id="Path_73" data-name="Path 73" class="cls-1" d="M182.32,40.76A5.08,5.08,0,0,1,186,42.14a4.6,4.6,0,0,1,1.38,3.66,4.76,4.76,0,0,1-4.45,5.05h-3.86V40.76Zm-1.39,8.41h1.39a2.74,2.74,0,0,0,2.27-1,3.14,3.14,0,0,0,.79-2.38,4.07,4.07,0,0,0-.79-2.47,3.19,3.19,0,0,0-2.27-1h-1.39Z"></path><rect id="Rectangle_19" data-name="Rectangle 19" class="cls-1" x="189.34" y="40.76" width="1.78" height="10.09"></rect><path id="Path_74" data-name="Path 74" class="cls-1" d="M192.51,40.76h8v1.58h-3.07v8.51h-1.88V42.34h-3.06Z"></path><path id="Path_75" data-name="Path 75" class="cls-1" d="M207.35,40.76V47a2.41,2.41,0,0,0,.59,1.78,2.11,2.11,0,0,0,1.58.49,2.48,2.48,0,0,0,1.58-.49,2.42,2.42,0,0,0,.6-1.78V40.76h1.78V47a4.06,4.06,0,1,1-8.11.4,2.67,2.67,0,0,1,0-.4V40.76Z"></path><path id="Path_76" data-name="Path 76" class="cls-1" d="M218,40.76l4.35,7.12V40.76h1.88V50.85h-1.88l-4.55-7.32v7.32h-1.78V40.76Z"></path><rect id="Rectangle_20" data-name="Rectangle 20" class="cls-1" x="226.73" y="40.76" width="1.78" height="10.09"></rect><path id="Path_77" data-name="Path 77" class="cls-1" d="M235,40.56a5.69,5.69,0,0,1,1.88.3,4.68,4.68,0,0,1,1.49,1,5.19,5.19,0,0,1,1.28,3.86,5.56,5.56,0,0,1-1.28,3.95,4.78,4.78,0,0,1-6.53,0,5.42,5.42,0,0,1-1.29-3.95,5.45,5.45,0,0,1,1.29-4A4.4,4.4,0,0,1,235,40.56m2.68,5.24a4.09,4.09,0,0,0-.7-2.67,2.36,2.36,0,0,0-2-.89,2.51,2.51,0,0,0-2,.89,4.14,4.14,0,0,0-.69,2.67,4.12,4.12,0,0,0,.69,2.67,2.35,2.35,0,0,0,2,.89,2.47,2.47,0,0,0,2-.89,4.82,4.82,0,0,0,.7-2.67"></path><path id="Path_78" data-name="Path 78" class="cls-1" d="M243.45,40.76l4.45,7.12V40.76h1.79V50.85H247.8l-4.55-7.32v7.32h-1.78V40.76Z"></path></g></g></svg>